<svg viewBox="0 0 15 14" fill="none" xmlns="http://www.w3.org/2000/svg">
<path d="M7.23117 8.16026L12.9265 13.8562C13.0231 13.9528 13.1343 14.0007 13.2599 14.0007C13.3855 14.0007 13.4967 13.9525 13.5932 13.8562L14.3179 13.1315C14.4144 13.0349 14.4629 12.9237 14.4629 12.7983C14.4629 12.6726 14.4144 12.5615 14.3179 12.4648L7.56456 5.71123C7.46796 5.61463 7.3568 5.56641 7.23122 5.56641C7.10558 5.56641 6.99447 5.61463 6.89787 5.71123L0.144564 12.4648C0.047815 12.5614 -0.000154806 12.6722 -0.000154811 12.798C-0.000154817 12.9238 0.0479161 13.0345 0.144564 13.1311L0.868762 13.8558C0.965358 13.9524 1.07657 14.0005 1.20226 14.0005C1.32774 14.0005 1.43885 13.9524 1.53545 13.8558L7.23117 8.16026Z" fill="white"/>
<path d="M7.23117 2.59406L12.9265 8.28947C13.0231 8.38607 13.1343 8.43419 13.2599 8.43419C13.3855 8.43419 13.4967 8.38612 13.5932 8.28947L14.3179 7.56512C14.4144 7.46852 14.4629 7.35736 14.4629 7.23193C14.4629 7.10614 14.4144 6.99498 14.3179 6.89843L7.56456 0.144819C7.46796 0.048222 7.3568 -3.10617e-07 7.23122 -3.16107e-07C7.10558 -3.21598e-07 6.99447 0.048222 6.89787 0.144819L0.144564 6.89838C0.047815 6.99493 -0.000154806 7.10599 -0.000154811 7.23188C-0.000154817 7.35731 0.0479161 7.46847 0.144564 7.56502L0.868762 8.28942C0.965358 8.38602 1.07657 8.43414 1.20226 8.43414C1.32774 8.43414 1.43885 8.38607 1.53545 8.28942L7.23117 2.59406Z" fill="white"/>
</svg>
