<svg width="13" height="20" viewBox="0 0 13 20" fill="none" xmlns="http://www.w3.org/2000/svg">
<path fill-rule="evenodd" clip-rule="evenodd" d="M0.0760864 13.538C0.0760863 11.6027 0.926873 9.8661 2.27484 8.68181L3.30385 10.4641C2.54301 11.2643 2.07609 12.3467 2.07609 13.538C2.07609 16.0023 4.07377 18 6.53804 18C9.00231 18 11 16.0023 11 13.538C11 12.322 10.5135 11.2196 9.72463 10.4148L10.7506 8.63776C12.1279 9.82282 13 11.5786 13 13.538C13 17.1069 10.1069 20 6.53804 20C2.9692 20 0.0760867 17.1069 0.0760864 13.538ZM6.87536 10.7525C6.63703 11.0825 6.14203 11.0825 5.88536 10.7525L1.8887 5.50917C1.57703 5.0875 1.87036 4.50083 2.3837 4.50083L4.54703 4.50083L4.54703 0.531668C4.54703 0.238335 4.78536 7.1815e-07 5.0787 6.92506e-07L7.68203 4.64912e-07C7.97536 4.39268e-07 8.2137 0.238335 8.2137 0.531668L8.2137 4.50083L10.377 4.50083C10.8904 4.50083 11.1837 5.0875 10.872 5.50917L6.87536 10.7525Z"/>
</svg>
