<svg width="14" height="16" viewBox="0 0 14 16" fill="none" xmlns="http://www.w3.org/2000/svg">
<path d="M7.44899 4.5668C7.21565 4.2668 6.76565 4.2668 6.54899 4.5668L2.91565 9.33346C2.63232 9.7168 2.89899 10.2501 3.36565 10.2501H5.33232V15.4501C5.33232 15.7168 5.54899 15.9335 5.81565 15.9335H8.18232C8.44899 15.9335 8.66565 15.7168 8.66565 15.4501V10.2501H10.6323C11.099 10.2501 11.3657 9.7168 11.0823 9.33346L7.44899 4.5668Z"/>
<path d="M13.5783 0H0.421687C0.185542 0 0 0.128655 0 0.292398V1.7076C0 1.87135 0.185542 2 0.421687 2H13.5783C13.8145 2 14 1.87135 14 1.7076V0.292398C14 0.128655 13.8145 0 13.5783 0Z"/>
</svg>
