<svg viewBox="0 0 27 28" fill="none" xmlns="http://www.w3.org/2000/svg">
<path d="M1.01887 7.09633H25.9811C26.5435 7.09633 27 6.63988 27 6.07746C27 5.51505 26.5435 5.05859 25.9811 5.05859H1.01887C0.456453 5.05859 0 5.51505 0 6.07746C0 6.63988 0.456453 7.09633 1.01887 7.09633Z" fill="white"/>
<path d="M1.01887 14.737H25.9811C26.5435 14.737 27 14.2805 27 13.7181C27 13.1557 26.5435 12.6992 25.9811 12.6992H1.01887C0.456453 12.6992 0 13.1557 0 13.7181C0 14.2805 0.456453 14.737 1.01887 14.737Z" fill="white"/>
<path d="M1.01887 22.3795H25.9811C26.5435 22.3795 27 21.9231 27 21.3607C27 20.7982 26.5435 20.3418 25.9811 20.3418H1.01887C0.456453 20.3418 0 20.7982 0 21.3607C0 21.9231 0.456453 22.3795 1.01887 22.3795Z" fill="white"/>
</svg>
