<svg width="32" height="32" viewBox="0 0 32 32" fill="none" xmlns="http://www.w3.org/2000/svg">
<path d="M16 0C7.17775 0 0 7.17726 0 16C0 24.8227 7.17726 32 16 32C24.8227 32 32 24.8227 32 16C32 7.17726 24.8222 0 16 0ZM2.93049 16C2.93049 8.79343 8.79343 2.93049 16 2.93049C19.247 2.93049 22.2195 4.12369 24.5077 6.09152L6.09152 24.5077C4.12369 22.2195 2.93049 19.247 2.93049 16ZM16 29.0695C13.0949 29.0695 10.4091 28.1156 8.23664 26.5063L26.5058 8.23713C28.1151 10.4096 29.069 13.0954 29.069 16.0005C29.0695 23.2066 23.2066 29.0695 16 29.0695Z" fill=""/>
</svg>
