<svg width="22" height="20" viewBox="0 0 22 20" fill="none" xmlns="http://www.w3.org/2000/svg">
<path fill-rule="evenodd" clip-rule="evenodd" d="M16.1317 10.9226C15.3625 12.0401 14.3129 12.923 12.9829 13.5716C11.6529 14.2203 10.2062 14.5444 8.64292 14.5438C7.93908 14.5438 7.21874 14.4681 6.48222 14.3165C5.46736 15.1497 4.32961 15.7558 3.06917 16.1346C2.77457 16.2199 2.42257 16.2957 2.01342 16.3619H1.97657C1.8864 16.3619 1.80263 16.3242 1.72484 16.2486C1.64714 16.1724 1.6001 16.0732 1.58363 15.9503C1.57537 15.9217 1.57133 15.8911 1.57133 15.858C1.57133 15.825 1.57339 15.794 1.57752 15.7658C1.58156 15.7372 1.58982 15.7089 1.60203 15.6806L1.63278 15.6098L1.67578 15.5317C1.70437 15.4796 1.7208 15.4559 1.72484 15.461C1.72897 15.4655 1.74737 15.4419 1.78018 15.3898C1.81286 15.3377 1.82933 15.3163 1.82933 15.3258C1.87014 15.2691 1.96431 15.1508 2.11172 14.9708C2.25908 14.7911 2.36547 14.6513 2.43096 14.5519C2.49649 14.4528 2.58847 14.3156 2.70715 14.1402C2.82592 13.9649 2.92813 13.7827 3.01413 13.5934C3.10009 13.4038 3.18398 13.1957 3.26577 12.9682C2.25096 12.2866 1.45291 11.4484 0.871881 10.4542C0.290856 9.46009 0 8.39909 0 7.27237C0 5.95606 0.384727 4.73945 1.15414 3.62213C1.92338 2.50477 2.97307 1.62177 4.30299 0.973092C5.63309 0.324414 7.07967 0 8.64292 0C10.2063 0 11.6529 0.324215 12.9829 0.972893C14.3129 1.62167 15.3625 2.50467 16.1317 3.62198C16.9011 4.73945 17.2858 5.95611 17.2858 7.27237C17.2858 8.58858 16.9011 9.8053 16.1317 10.9226ZM5.57375 12.8259L6.11401 12.3858L6.76469 12.5277C7.40317 12.6601 8.0293 12.7265 8.643 12.7265C9.89536 12.7265 11.0657 12.4803 12.1542 11.9879C13.2427 11.4956 14.1083 10.8282 14.7509 9.98524C15.3933 9.14249 15.7145 8.23825 15.7145 7.27242C15.7145 6.30639 15.3933 5.40211 14.7509 4.55941C14.1082 3.71666 13.2427 3.04907 12.1542 2.55656C11.0657 2.06429 9.89523 1.81793 8.643 1.81793C7.39078 1.81793 6.22035 2.06429 5.13187 2.55656C4.04331 3.04912 3.17775 3.71666 2.53541 4.55941C1.89298 5.40216 1.57159 6.30644 1.57159 7.27242C1.57159 8.04896 1.7884 8.79703 2.22223 9.51665C2.65602 10.2363 3.26569 10.8613 4.05157 11.3914L5.24243 12.1868L4.81263 13.3801C5.09098 13.1906 5.34455 13.0057 5.57375 12.8259ZM21.9994 10.9086C21.9994 12.045 21.7089 13.1076 21.1277 14.0974C20.547 15.0876 19.7488 15.9232 18.7342 16.6055C18.8161 16.8326 18.9 17.041 18.9859 17.2304C19.0718 17.4198 19.1743 17.6021 19.2929 17.7771C19.4115 17.9525 19.5036 18.0897 19.5691 18.1892C19.6346 18.2886 19.7408 18.4282 19.8882 18.608C20.0355 18.788 20.1296 18.9063 20.1705 18.9631C20.1788 18.9726 20.1952 18.9941 20.2197 19.0269C20.2444 19.0598 20.2627 19.0837 20.2747 19.0978C20.2871 19.1121 20.3034 19.1359 20.3238 19.1688C20.3444 19.2018 20.3583 19.228 20.3668 19.2467L20.3974 19.3176C20.3974 19.3176 20.4057 19.346 20.4218 19.4029C20.4381 19.4596 20.4401 19.4906 20.428 19.495C20.4157 19.4996 20.4119 19.5308 20.4157 19.5876C20.3913 19.7201 20.338 19.8239 20.2562 19.8998C20.1744 19.9754 20.0842 20.0088 19.986 19.9991C19.5767 19.9329 19.2248 19.8573 18.9301 19.7718C17.6698 19.3929 16.532 18.7871 15.5172 17.9536C14.7805 18.105 14.0603 18.181 13.3564 18.181C11.1384 18.181 9.2068 17.5558 7.56177 16.3062C8.03641 16.344 8.39658 16.3627 8.64203 16.3627C9.95979 16.3627 11.2244 16.1495 12.4355 15.7236C13.6469 15.2973 14.7273 14.6867 15.6767 13.8913C16.6997 13.02 17.4855 12.0164 18.0338 10.8803C18.5826 9.74391 18.8564 8.54133 18.8564 7.27258C18.8564 6.5433 18.7623 5.82368 18.5742 5.11357C19.6299 5.78587 20.4648 6.62877 21.0788 7.64176C21.6924 8.65481 21.9994 9.74391 21.9994 10.9086Z"/>
</svg>
