<svg width="13" height="20" viewBox="0 0 13 20" fill="none" xmlns="http://www.w3.org/2000/svg">
<path fill-rule="evenodd" clip-rule="evenodd" d="M12.9239 6.46196C12.9239 8.39729 12.0731 10.1339 10.7252 11.3182L9.69615 9.5359C10.457 8.73565 10.9239 7.65333 10.9239 6.46196C10.9239 3.99769 8.92623 2 6.46196 2C3.99769 2 2 3.99769 2 6.46196C2 7.67799 2.48645 8.7804 3.27537 9.58522L2.24941 11.3622C0.872138 10.1772 0 8.42142 0 6.46196C0 2.89312 2.89312 0 6.46196 0C10.0308 0 12.9239 2.89312 12.9239 6.46196ZM6.12464 9.2475C6.36297 8.9175 6.85797 8.9175 7.11464 9.2475L11.1113 14.4908C11.423 14.9125 11.1296 15.4992 10.6163 15.4992H8.45297V19.4683C8.45297 19.7617 8.21464 20 7.9213 20H5.31797C5.02464 20 4.7863 19.7617 4.7863 19.4683V15.4992H2.62297C2.10964 15.4992 1.8163 14.9125 2.12797 14.4908L6.12464 9.2475Z"/>
</svg>
