<svg width="20" height="20" viewBox="0 0 20 20" fill="none" xmlns="http://www.w3.org/2000/svg">
<path d="M5 2.5L5 17.5C5 17.7761 5.22386 18 5.5 18H6.5C6.77614 18 7 17.7761 7 17.5L7 2.5C7 2.22386 6.77614 2 6.5 2L5.5 2C5.22386 2 5 2.22386 5 2.5Z"/>
<path d="M13 2.5L13 17.5C13 17.7761 13.2239 18 13.5 18H14.5C14.7761 18 15 17.7761 15 17.5L15 2.5C15 2.22386 14.7761 2 14.5 2L13.5 2C13.2239 2 13 2.22386 13 2.5Z"/>
<path d="M2.5 15L17.5 15C17.7761 15 18 14.7761 18 14.5V13.5C18 13.2239 17.7761 13 17.5 13L2.5 13C2.22386 13 2 13.2239 2 13.5L2 14.5C2 14.7761 2.22386 15 2.5 15Z"/>
<path d="M2.5 7L17.5 7C17.7761 7 18 6.77614 18 6.5V5.5C18 5.22386 17.7761 5 17.5 5L2.5 5C2.22386 5 2 5.22386 2 5.5L2 6.5C2 6.77614 2.22386 7 2.5 7Z"/>
</svg>
