<svg width="16" height="14" viewBox="0 0 16 14" fill="none" xmlns="http://www.w3.org/2000/svg">
<path d="M11.4464 7.36647C11.7464 7.13313 11.7464 6.68313 11.4464 6.46647L6.67972 2.83313C6.29639 2.5498 5.76305 2.81647 5.76305 3.28313L5.76305 5.2498L0.563053 5.2498C0.296386 5.2498 0.0797195 5.46647 0.0797195 5.73313L0.0797195 8.0998C0.0797195 8.36647 0.296386 8.58313 0.563053 8.58313L5.76305 8.58313L5.76305 10.5498C5.76305 11.0165 6.29639 11.2831 6.67972 10.9998L11.4464 7.36647Z"/>
<path d="M16 13.5783L16 0.421687C16 0.185542 15.8713 1.5342e-09 15.7076 3.48681e-09L14.2924 2.0363e-08C14.1287 2.23156e-08 14 0.185542 14 0.421687L14 13.5783C14 13.8145 14.1287 14 14.2924 14L15.7076 14C15.8713 14 16 13.8145 16 13.5783Z"/>
</svg>
