<svg width="16" height="14" viewBox="0 0 16 14" fill="none" xmlns="http://www.w3.org/2000/svg">
<path d="M4.56143 6.63353C4.26143 6.86687 4.26143 7.31687 4.56143 7.53353L9.32809 11.1669C9.71143 11.4502 10.2448 11.1835 10.2448 10.7169L10.2448 8.7502L15.4448 8.7502C15.7114 8.7502 15.9281 8.53353 15.9281 8.26687L15.9281 5.9002C15.9281 5.63353 15.7114 5.41687 15.4448 5.41687L10.2448 5.41687L10.2448 3.4502C10.2448 2.98353 9.71143 2.71687 9.32809 3.0002L4.56143 6.63353Z"/>
<path d="M1.6192e-07 0.421687L5.02856e-09 13.5783C2.21257e-09 13.8145 0.128655 14 0.292398 14L1.7076 14C1.87134 14 2 13.8145 2 13.5783L2 0.421687C2 0.185543 1.87135 5.43856e-07 1.7076 5.41904e-07L0.292398 5.25027e-07C0.128655 5.23075e-07 1.64736e-07 0.185543 1.6192e-07 0.421687Z"/>
</svg>
