<svg width="20" height="20" viewBox="0 0 20 20" fill="none" xmlns="http://www.w3.org/2000/svg">
<path d="M0 19.5C0 19.7761 0.223858 20 0.5 20H19.5C19.7761 20 20 19.7761 20 19.5V16.5C20 16.2239 19.7761 16 19.5 16H16L14.2929 17.7071C14.1054 17.8946 13.851 18 13.5858 18H10H6.41421C6.149 18 5.89464 17.8946 5.70711 17.7071L4 16H0.5C0.223858 16 0 16.2239 0 16.5V19.5Z"/>
<path d="M20 0.5C20 0.223858 19.7761 -1.95703e-08 19.5 -4.37114e-08L0.5 -1.70474e-06C0.223858 -1.72889e-06 -1.95703e-08 0.223856 -4.37114e-08 0.499998L-3.0598e-07 3.5C-3.30121e-07 3.77614 0.223858 4 0.5 4L4 4L5.70711 2.29289C5.89464 2.10536 6.149 2 6.41421 2L10 2L13.5858 2C13.851 2 14.1054 2.10536 14.2929 2.29289L16 4L19.5 4C19.7761 4 20 3.77614 20 3.5L20 0.5Z"/>
</svg>
