<svg width="20" height="20" viewBox="0 0 20 20" fill="none" xmlns="http://www.w3.org/2000/svg">
<path d="M20 10.5V9.5C20 9.22386 19.7761 9 19.5 9H15V7.60355C15 7.38083 14.7307 7.26929 14.5732 7.42678L12.3536 9.64645C12.1583 9.84171 12.1583 10.1583 12.3536 10.3536L14.5732 12.5732C14.7307 12.7307 15 12.6192 15 12.3964V11H19.5C19.7761 11 20 10.7761 20 10.5Z"/>
<path d="M0 10.5V9.5C0 9.22386 0.223858 9 0.5 9H5V7.60355C5 7.38083 5.26929 7.26929 5.42678 7.42678L7.64645 9.64645C7.84171 9.84171 7.84171 10.1583 7.64645 10.3536L5.42678 12.5732C5.26929 12.7307 5 12.6192 5 12.3964V11H0.5C0.223857 11 0 10.7761 0 10.5Z"/>
<path d="M9 2.5L9 17.5C9 17.7761 9.22386 18 9.5 18L10.5 18C10.7761 18 11 17.7761 11 17.5L11 10L11 2.5C11 2.22386 10.7761 2 10.5 2L9.5 2C9.22386 2 9 2.22386 9 2.5Z"/>
</svg>
