<svg width="14" height="16" viewBox="0 0 14 16" fill="none" xmlns="http://www.w3.org/2000/svg">
<path d="M6.55101 11.4332C6.78435 11.7332 7.23435 11.7332 7.45101 11.4332L11.0843 6.66654C11.3677 6.2832 11.101 5.74987 10.6343 5.74987L8.66768 5.74987L8.66768 0.54987C8.66768 0.283203 8.45101 0.0665361 8.18435 0.0665361L5.81768 0.0665363C5.55101 0.0665363 5.33435 0.283203 5.33435 0.54987L5.33435 5.74987L3.36768 5.74987C2.90101 5.74987 2.63435 6.2832 2.91768 6.66654L6.55101 11.4332Z"/>
<path d="M0.421687 16L13.5783 16C13.8145 16 14 15.8713 14 15.7076L14 14.2924C14 14.1287 13.8145 14 13.5783 14L0.421687 14C0.185543 14 3.57942e-07 14.1287 3.72257e-07 14.2924L4.95978e-07 15.7076C5.10293e-07 15.8713 0.185543 16 0.421687 16Z"/>
</svg>
