<svg width="20" height="20" viewBox="0 0 20 20" fill="none" xmlns="http://www.w3.org/2000/svg">
<path d="M0 2.5C0 2.22386 0.223858 2 0.5 2H19.5C19.7761 2 20 2.22386 20 2.5V5.5C20 5.77614 19.7761 6 19.5 6H16L14.2969 8.5547C14.1114 8.8329 13.7992 9 13.4648 9H10H6.53518C6.20083 9 5.8886 8.8329 5.70313 8.5547L4 6H0.5C0.223858 6 0 5.77614 0 5.5V2.5Z"/>
<path d="M0 17.5C0 17.7761 0.223858 18 0.5 18H19.5C19.7761 18 20 17.7761 20 17.5V14.5C20 14.2239 19.7761 14 19.5 14H16L14.2969 11.4453C14.1114 11.1671 13.7992 11 13.4648 11H10H6.53518C6.20083 11 5.8886 11.1671 5.70313 11.4453L4 14H0.5C0.223858 14 0 14.2239 0 14.5V17.5Z"/>
</svg>
